<mxfile host="app.diagrams.net" agent="Mozilla/5.0 (Macintosh; Intel Mac OS X 10_15_7) AppleWebKit/605.1.15 (KHTML, like Gecko) Version/17.5 Safari/605.1.15" version="24.7.12">
  <diagram name="第 1 页" id="QjlIj0iyaf9ogRQ0GuOx">
    <mxGraphModel dx="1833" dy="1215" grid="1" gridSize="10" guides="1" tooltips="1" connect="1" arrows="1" fold="1" page="1" pageScale="1" pageWidth="827" pageHeight="1169" math="1" shadow="0">
      <root>
        <mxCell id="0" />
        <mxCell id="1" parent="0" />
        <mxCell id="9NlLvZTU2Q5gZjpkGXMk-18" value="" style="edgeStyle=orthogonalEdgeStyle;rounded=0;orthogonalLoop=1;jettySize=auto;html=1;shape=flexArrow;fillColor=#dae8fc;strokeColor=#6c8ebf;dashed=1;" edge="1" parent="1" source="9NlLvZTU2Q5gZjpkGXMk-1" target="9NlLvZTU2Q5gZjpkGXMk-16">
          <mxGeometry relative="1" as="geometry" />
        </mxCell>
        <mxCell id="9NlLvZTU2Q5gZjpkGXMk-1" value="" style="rounded=0;whiteSpace=wrap;html=1;fillColor=#dae8fc;strokeColor=#6c8ebf;" vertex="1" parent="1">
          <mxGeometry x="30" y="280" width="270" height="280" as="geometry" />
        </mxCell>
        <mxCell id="9NlLvZTU2Q5gZjpkGXMk-2" value="" style="rounded=0;whiteSpace=wrap;html=1;fillColor=#A9C4EB;strokeColor=#6c8ebf;" vertex="1" parent="1">
          <mxGeometry x="50" y="330" width="220" height="130" as="geometry" />
        </mxCell>
        <mxCell id="9NlLvZTU2Q5gZjpkGXMk-3" value="" style="rounded=0;whiteSpace=wrap;html=1;strokeColor=#6c8ebf;align=center;verticalAlign=middle;fontFamily=Helvetica;fontSize=12;fillColor=#A9C4EB;" vertex="1" parent="1">
          <mxGeometry x="50" y="480" width="220" height="60" as="geometry" />
        </mxCell>
        <mxCell id="9NlLvZTU2Q5gZjpkGXMk-6" value="" style="rounded=1;whiteSpace=wrap;html=1;aspect=fixed;fillColor=#7EA6E0;strokeColor=#6c8ebf;" vertex="1" parent="1">
          <mxGeometry x="60" y="340" width="111" height="54" as="geometry" />
        </mxCell>
        <mxCell id="9NlLvZTU2Q5gZjpkGXMk-7" value="" style="rounded=1;whiteSpace=wrap;html=1;fillColor=#7EA6E0;strokeColor=#6c8ebf;" vertex="1" parent="1">
          <mxGeometry x="60" y="400" width="110" height="50" as="geometry" />
        </mxCell>
        <mxCell id="9NlLvZTU2Q5gZjpkGXMk-8" value="$$\mathbb{S}_{DB}$$" style="text;html=1;align=center;verticalAlign=middle;whiteSpace=wrap;rounded=0;fontSize=24;" vertex="1" parent="1">
          <mxGeometry x="230" y="290" width="60" height="30" as="geometry" />
        </mxCell>
        <mxCell id="9NlLvZTU2Q5gZjpkGXMk-9" value="$$S_{DB}$$" style="text;html=1;align=center;verticalAlign=middle;whiteSpace=wrap;rounded=0;fontSize=24;" vertex="1" parent="1">
          <mxGeometry x="200" y="340" width="60" height="30" as="geometry" />
        </mxCell>
        <mxCell id="9NlLvZTU2Q5gZjpkGXMk-10" value="$$S_{DB}$$" style="text;html=1;align=center;verticalAlign=middle;whiteSpace=wrap;rounded=0;fontSize=24;" vertex="1" parent="1">
          <mxGeometry x="200" y="490" width="60" height="30" as="geometry" />
        </mxCell>
        <mxCell id="9NlLvZTU2Q5gZjpkGXMk-11" value="" style="rounded=1;whiteSpace=wrap;html=1;fillColor=#7EA6E0;strokeColor=#6c8ebf;" vertex="1" parent="1">
          <mxGeometry x="61" y="485" width="110" height="50" as="geometry" />
        </mxCell>
        <mxCell id="9NlLvZTU2Q5gZjpkGXMk-12" value="$$s_{DB}$$" style="text;html=1;align=center;verticalAlign=middle;whiteSpace=wrap;rounded=0;fontSize=24;" vertex="1" parent="1">
          <mxGeometry x="85" y="352" width="60" height="30" as="geometry" />
        </mxCell>
        <mxCell id="9NlLvZTU2Q5gZjpkGXMk-13" value="$$s_{DB}$$" style="text;html=1;align=center;verticalAlign=middle;whiteSpace=wrap;rounded=0;fontSize=24;" vertex="1" parent="1">
          <mxGeometry x="85" y="410" width="60" height="30" as="geometry" />
        </mxCell>
        <mxCell id="9NlLvZTU2Q5gZjpkGXMk-14" value="$$s_{DB}$$" style="text;html=1;align=center;verticalAlign=middle;whiteSpace=wrap;rounded=0;fontSize=24;" vertex="1" parent="1">
          <mxGeometry x="85" y="495" width="60" height="30" as="geometry" />
        </mxCell>
        <mxCell id="9NlLvZTU2Q5gZjpkGXMk-16" value="" style="sketch=0;pointerEvents=1;shadow=0;dashed=0;html=1;strokeColor=#6c8ebf;labelPosition=center;verticalLabelPosition=bottom;verticalAlign=top;outlineConnect=0;align=center;shape=mxgraph.office.concepts.folder;fillColor=#dae8fc;fontSize=24;" vertex="1" parent="1">
          <mxGeometry x="370" y="280" width="240" height="280" as="geometry" />
        </mxCell>
        <mxCell id="9NlLvZTU2Q5gZjpkGXMk-20" value="" style="whiteSpace=wrap;html=1;shape=mxgraph.basic.document;fillColor=#A9C4EB;strokeColor=#6c8ebf;" vertex="1" parent="1">
          <mxGeometry x="390" y="340" width="160" height="120" as="geometry" />
        </mxCell>
        <mxCell id="9NlLvZTU2Q5gZjpkGXMk-21" value="" style="whiteSpace=wrap;html=1;shape=mxgraph.basic.document;fillColor=#A9C4EB;strokeColor=#6c8ebf;" vertex="1" parent="1">
          <mxGeometry x="390" y="475" width="160" height="70" as="geometry" />
        </mxCell>
        <mxCell id="9NlLvZTU2Q5gZjpkGXMk-23" value="" style="image;aspect=fixed;html=1;points=[];align=center;fontSize=12;image=img/lib/azure2/databases/Azure_SQL.svg;imageBackground=none;" vertex="1" parent="1">
          <mxGeometry x="414" y="354" width="64" height="46" as="geometry" />
        </mxCell>
        <mxCell id="9NlLvZTU2Q5gZjpkGXMk-24" value="" style="image;aspect=fixed;html=1;points=[];align=center;fontSize=12;image=img/lib/azure2/databases/Azure_SQL.svg;imageBackground=none;" vertex="1" parent="1">
          <mxGeometry x="414" y="404" width="64" height="46" as="geometry" />
        </mxCell>
        <mxCell id="9NlLvZTU2Q5gZjpkGXMk-25" value="" style="image;aspect=fixed;html=1;points=[];align=center;fontSize=12;image=img/lib/azure2/databases/Azure_SQL.svg;imageBackground=none;" vertex="1" parent="1">
          <mxGeometry x="414" y="489" width="64" height="46" as="geometry" />
        </mxCell>
        <mxCell id="9NlLvZTU2Q5gZjpkGXMk-26" value="形式化定义" style="text;html=1;align=center;verticalAlign=middle;whiteSpace=wrap;rounded=0;fontSize=24;" vertex="1" parent="1">
          <mxGeometry x="102.5" y="570" width="125" height="30" as="geometry" />
        </mxCell>
        <mxCell id="9NlLvZTU2Q5gZjpkGXMk-27" value="DWF仓库" style="text;html=1;align=center;verticalAlign=middle;whiteSpace=wrap;rounded=0;fontSize=24;" vertex="1" parent="1">
          <mxGeometry x="550" y="350" width="60" height="30" as="geometry" />
        </mxCell>
        <mxCell id="9NlLvZTU2Q5gZjpkGXMk-28" value="代码文件" style="text;html=1;align=center;verticalAlign=middle;whiteSpace=wrap;rounded=0;fontSize=24;" vertex="1" parent="1">
          <mxGeometry x="480" y="370" width="60" height="30" as="geometry" />
        </mxCell>
        <mxCell id="9NlLvZTU2Q5gZjpkGXMk-30" value="代码片段" style="text;html=1;align=center;verticalAlign=middle;whiteSpace=wrap;rounded=0;fontSize=24;" vertex="1" parent="1">
          <mxGeometry x="478" y="497" width="60" height="30" as="geometry" />
        </mxCell>
        <mxCell id="9NlLvZTU2Q5gZjpkGXMk-31" value="&lt;span style=&quot;font-size: 24px; white-space: nowrap;&quot;&gt;DWF中的对应关系&lt;/span&gt;" style="text;html=1;align=center;verticalAlign=middle;whiteSpace=wrap;rounded=0;" vertex="1" parent="1">
          <mxGeometry x="460" y="570" width="60" height="30" as="geometry" />
        </mxCell>
      </root>
    </mxGraphModel>
  </diagram>
</mxfile>
